<svg width="30" height="30" viewBox="0 0 30 30" fill="none" xmlns="http://www.w3.org/2000/svg"><rect width="30" height="30" rx="15" fill="#E30613"/><path d="m12.79 10.11-.313-.705c-.205-.46-.308-.691-.46-.868a1.56 1.56 0 0 0-.723-.469C11.071 8 10.82 8 10.314 8c-.737 0-1.106 0-1.415.142-.365.167-.694.53-.825.908-.112.322-.08.653-.016 1.314q1.02 10.56 11.578 11.578c.661.064.992.096 1.314-.016.379-.13.741-.46.908-.825.142-.31.142-.678.142-1.416 0-.504 0-.756-.068-.98a1.56 1.56 0 0 0-.47-.721c-.176-.153-.406-.256-.867-.46l-.704-.314c-.5-.222-.749-.332-1.002-.357a1.56 1.56 0 0 0-.715.1c-.237.092-.447.267-.866.617-.418.348-.627.522-.882.615a1.7 1.7 0 0 1-.763.078c-.269-.04-.475-.15-.886-.37-1.28-.684-1.986-1.39-2.67-2.67-.22-.412-.33-.617-.37-.886a1.7 1.7 0 0 1 .078-.763c.093-.255.267-.464.615-.882.35-.42.525-.629.617-.866a1.56 1.56 0 0 0 .1-.715c-.025-.253-.136-.503-.357-1.001Z" stroke="#fff" stroke-width="2" stroke-linecap="round"/></svg>